<?xml version="1.0" encoding="utf-8"?>
<!-- Svg Vector Icons : http://www.onlinewebfonts.com/icon -->
<!DOCTYPE svg PUBLIC "-//W3C//DTD SVG 1.1//EN" "http://www.w3.org/Graphics/SVG/1.1/DTD/svg11.dtd">
<svg version="1.1" xmlns="http://www.w3.org/2000/svg" xmlns:xlink="http://www.w3.org/1999/xlink" x="0px" y="0px" viewBox="0 0 1000 1000" enable-background="new 0 0 1000 1000" xml:space="preserve">
<metadata> Svg Vector Icons : http://www.onlinewebfonts.com/icon </metadata>
<g><g><g><path d="M846.4,153.4c-45-45-97.4-80.3-155.8-105C630.2,22.9,566.1,9.9,499.9,9.9c-66.1,0.1-130.2,13-190.6,38.6c-58.4,24.7-110.8,60-155.7,105c-45,45-80.3,97.4-105,155.8C23,369.7,10,433.9,10,500.1c0,66.1,13,130.3,38.5,190.8c24.7,58.4,60,110.8,105,155.8c45,45,97.4,80.3,155.7,105c60.4,25.5,124.6,38.5,190.8,38.5c66.1,0,130.3-13,190.8-38.5c58.4-24.7,110.8-60,155.8-105c45-45,80.3-97.4,105-155.8C977,630.4,990,566.2,990,500.1c0-66.1-13-130.3-38.5-190.7C926.7,250.8,891.4,198.5,846.4,153.4z M228.8,120.6c4.4-3.4,8.8-7,13.3-10.2c23.8-16.7,50.1-30.2,76.9-41.4c57-23.9,119-36.4,181-36.4c41.3,0,83.6,5.6,123.4,16.5c-15.8,6.4-35,18.5-67.3,46.1c-26.9-2.9-54-3-81.3-0.4c-35.6,3.4-71.4,11.3-106.4,23.7c-31.6,11.1-56.6,23.8-73.5,33.5c-25.8-9.3-59.2-20.2-75.7-25.5C221.6,127.2,227,121.9,228.8,120.6z M675.1,243.1l-83.8,228.7l-201,38.6L224.1,338.8c11.2-77.8,64.5-146.8,64.5-146.8c0.3-0.2,35.1-25.3,90.9-44.8c32.5-11.4,65.7-18.7,98.7-21.8c27-2.5,53.8-2.1,80.4,1.1L675.1,243.1z M50.5,483.7c-5.1,33.3-6.3,67.7-3.6,102.4c-4-8-7.2-14.8-9.6-20.3c-3.1-21.5-4.6-43.5-4.6-66c0-69,14.9-134.5,41.8-193.5c-3,30.9-1.5,62.9,0.6,87.2C63.5,422.4,55.3,452.6,50.5,483.7z M91.1,661.9c-4.7-17.4-10.3-42.7-13.1-73.1c-3.1-34.3-2.2-68.4,3-101c3.9-25,10.2-49.3,18.8-72.7c33.9-28.6,78.8-45.4,103.6-53.1l163.1,168.4L349.4,715L190,768.2C149.5,738.4,116.3,698.8,91.1,661.9z M575.4,929.1c-35.5,23.3-125.3,28.8-161.7,30.2c-40.1-7.5-79.2-20.4-115.9-38.1c-32.1-15.4-62.6-34.6-90.4-57c0.5-0.9-4.3-50-4.1-67.9l161-53.7L550,822.9l25.6,105.9C575.5,929,575.4,929.1,575.4,929.1z M884.1,766.2c-27.7,39.9-60.8,77.1-100.7,105.3c-37.4,26.4-87.4,35.4-131.9,42.7c-3.4,0.5-45.9,7.5-46.2,6.1l-25.6-106L710.5,678l173.3-16c2.7,27.6,6.2,67.8,8.2,92.4C889.3,758.4,886.8,762.3,884.1,766.2z M886.8,627.6c-0.6,1-1.2,2.2-1.9,3.4l-172.5,15.9l-92.9-162.4l84-229.3l118.6,7.5c25.2,21.1,47.6,44.6,66.5,69.9c23.7,31.8,42.1,66.7,54.7,103.7C930.1,550.7,899.7,607.7,886.8,627.6z M948.6,370c-10.2-19.7-22.1-38.6-35.6-56.6c-21.3-28.5-46.6-54.8-75.4-78.1c-5.3-26-19.7-67-58.4-110c0.7,0.5,1.4,1.1,2.2,1.6c2.4,1.7,4.6,3.6,7,5.4c26.7,21,51,44.8,72.5,70.9c39.9,48.7,70.1,105.2,87.8,165.8C948.6,369.4,948.6,369.7,948.6,370z"/></g></g><g></g><g></g><g></g><g></g><g></g><g></g><g></g><g></g><g></g><g></g><g></g><g></g><g></g><g></g><g></g></g>
</svg>