<?xml version="1.0" encoding="utf-8"?>
<!-- Svg Vector Icons : http://www.onlinewebfonts.com/icon -->
<!DOCTYPE svg PUBLIC "-//W3C//DTD SVG 1.1//EN" "http://www.w3.org/Graphics/SVG/1.1/DTD/svg11.dtd">
<svg version="1.1" xmlns="http://www.w3.org/2000/svg" xmlns:xlink="http://www.w3.org/1999/xlink" x="0px" y="0px" viewBox="0 0 1000 1000" enable-background="new 0 0 1000 1000" xml:space="preserve">
<metadata> Svg Vector Icons : http://www.onlinewebfonts.com/icon </metadata>
<g><path d="M312.8,825.3c-12.3,0-22.5-10.2-22.5-22.5s10.2-22.5,22.5-22.5h534c12.3,0,22.5,10.2,22.5,22.5s-10.2,22.5-22.5,22.5H312.8L312.8,825.3z M312.8,166.5L312.8,166.5c-12.3,0-22.5,10.2-22.5,22.5l0,0v159.6c0,12.3,10.2,22.5,22.5,22.5l0,0h534l0,0c12.3,0,22.5-10.2,22.5-22.5V191.1l0,0c0-12.3-10.2-22.5-22.5-22.5h-534V166.5z M335.3,326.1L335.3,326.1V211.5h489v114.6H335.3L335.3,326.1z M167.5,320L167.5,320H85.7v527.8c0,53.2,81.8,53.2,81.8,0V320L167.5,320z M126.6,962.4L126.6,962.4c-30.7,0-61.4-12.3-81.8-34.8l0,0C24.3,907.1,10,876.5,10,845.8V283.1l0,0c0-20.5,16.4-36.8,36.8-36.8h120.7V74.4c0-20.5,16.4-36.8,38.9-36.8l0,0h746.8c20.5,0,36.8,18.4,36.8,36.8l0,0v771.3c0,32.7-12.3,61.4-34.8,81.8l0,0l0,0c-20.5,20.5-51.1,32.7-81.8,32.7H126.6V962.4L126.6,962.4L126.6,962.4z M916.3,845.8L916.3,845.8V113.3H243.2c0,245.5,0,489,0,734.5c0,14.3-2,28.6-8.2,40.9h638.3c10.2,0,22.5-4.1,28.6-12.3l0,0C912.3,868.3,916.3,858,916.3,845.8L916.3,845.8z M605.4,416.1L605.4,416.1L605.4,416.1h241.4c12.3,0,22.5,10.2,22.5,22.5l0,0v122.8c0,12.3-10.2,22.5-22.5,22.5l0,0H605.4c-12.3,0-22.5-10.2-22.5-22.5v-2V438.6C582.9,426.3,593.1,416.1,605.4,416.1L605.4,416.1z M824.3,463.2L824.3,463.2H627.9v75.7h196.4V463.2L824.3,463.2z M312.8,463.2L312.8,463.2c-12.3,0-22.5-10.2-22.5-22.5c0-12.3,10.2-22.5,22.5-22.5h221c12.3,0,22.5,10.2,22.5,22.5c0,12.3-10.2,22.5-22.5,22.5H312.8L312.8,463.2z M312.8,583.9L312.8,583.9c-12.3,0-22.5-10.2-22.5-22.5s10.2-22.5,22.5-22.5h221c12.3,0,22.5,10.2,22.5,22.5s-10.2,22.5-22.5,22.5H312.8L312.8,583.9z M312.8,704.6L312.8,704.6c-12.3,0-22.5-10.2-22.5-22.5c0-12.3,10.2-22.5,22.5-22.5h534c12.3,0,22.5,10.2,22.5,22.5c0,12.3-10.2,22.5-22.5,22.5H312.8L312.8,704.6z"/></g>
</svg>