<?xml version="1.0" encoding="utf-8"?>
<!-- Svg Vector Icons : http://www.onlinewebfonts.com/icon -->
<!DOCTYPE svg PUBLIC "-//W3C//DTD SVG 1.1//EN" "http://www.w3.org/Graphics/SVG/1.1/DTD/svg11.dtd">
<svg version="1.1" xmlns="http://www.w3.org/2000/svg" xmlns:xlink="http://www.w3.org/1999/xlink" x="0px" y="0px" viewBox="0 0 1000 1000" enable-background="new 0 0 1000 1000" xml:space="preserve">
<metadata> Svg Vector Icons : http://www.onlinewebfonts.com/icon </metadata>
<g><path d="M500,359c46.4,0,90.2-18.2,123.2-51.3c33.1-33.1,51.3-76.8,51.3-123.2s-18.2-90.2-51.3-123.2C590.2,28.2,546.4,10,500,10c-46.4,0-90.2,18.2-123.2,51.3c-33.1,33.1-51.3,76.8-51.3,123.2s18.2,90.2,51.3,123.2C409.8,340.8,453.6,359,500,359z M426.3,110.8C446.1,90.9,472.3,80,500,80c27.7,0,53.9,10.9,73.7,30.8c19.8,19.8,30.8,46,30.8,73.7c0,27.7-10.9,53.9-30.8,73.7c-19.8,19.8-46,30.8-73.7,30.8c-27.7,0-53.9-10.9-73.7-30.8c-19.9-19.9-30.8-46-30.8-73.7C395.5,156.8,406.4,130.6,426.3,110.8z"/><path d="M184.9,185.6C108.3,185.6,45,248.5,45,325.1c0,76.6,63.3,139.2,139.9,139.2c76.6,0,139.2-62.6,139.2-139.2C324,248.5,261.5,185.6,184.9,185.6z M233.7,373.9c-13.1,13.1-30.5,20.4-48.8,20.4c-18.5,0-36-7.3-49.3-20.5c-13.2-13.2-20.5-30.4-20.5-48.7c0-18.3,7.3-35.7,20.6-48.9c13.3-13.3,30.8-20.6,49.2-20.6c18.3,0,35.6,7.3,48.7,20.4c13.2,13.2,20.4,30.7,20.4,49.1C254,343.4,246.8,360.8,233.7,373.9z"/><path d="M955,325.1c0-76.6-63.3-139.5-139.8-139.5c-76.6,0-139.2,62.9-139.2,139.5c0,76.6,62.6,139.2,139.2,139.2C891.8,464.3,955,401.7,955,325.1z M746,325.1c0-18.4,7.3-35.8,20.4-49.1c13.1-13.2,30.5-20.5,48.7-20.5c18.4,0,35.9,7.3,49.2,20.6c13.3,13.3,20.6,30.6,20.6,48.9c0,18.2-7.3,35.5-20.5,48.7c-13.3,13.2-30.8,20.5-49.3,20.5c-18.3,0-35.7-7.2-48.8-20.4C753.2,360.8,746,343.4,746,325.1z"/><path d="M184.8,852.3H97.6c-11.8,0-20-8.2-20-20V719.7c0-62.6,39.4-114.7,95.2-133.2c12.9-3.8,18.2-5.3,25.3-10c8.3-6,13.7-15.6,13.7-26.6c0-18.3-14.7-33-33-33c-6.4,0.1-12.5,1-18.6,2.7C73.4,544.7,10,625,10,719.7v112.6c0,47.9,39.6,87.6,87.6,87.6h87.2c17.9,0.3,34.6-16.1,34.6-34C219.4,868.1,202.7,852.1,184.8,852.3z"/><path d="M839.8,519.6c-6.2-1.6-12.2-2.6-18.6-2.7c-18.3,0-33,14.7-33,33c0,11,5.3,20.6,13.7,26.6c7.1,4.7,12.4,6.2,25.3,10c55.8,18.5,95.2,70.6,95.2,133.2v112.7c0,11.8-8.2,20-20,20h-87.2c-17.9-0.3-34.6,15.8-34.6,33.7c0,17.9,16.8,34.2,34.6,34h87.2c47.9,0,87.6-39.7,87.6-87.6V719.7C990,625,926.6,544.7,839.8,519.6z"/><path d="M499.8,430.6c-114.8,0-208.1,93.3-208.1,208.1v196.1v6.7v60.9c0,47.9,39.6,87.6,87.6,87.6c1.1,0.1,240,0.1,241.1,0c47.9,0,87.9-39.4,87.9-87.6v-60.9v-6.7V638.7C708.3,523.9,614.6,430.6,499.8,430.6z M640.3,834.8v6.7v60.9c0,11.6-8.2,20-20,20c-1.1-0.1-240-0.1-241.1,0c-11.8,0-20-8.2-20-20v-60.9v-6.7V638.7c0-78.4,62.1-140.5,140.5-140.5c78.4,0,140.5,62.1,140.5,140.5V834.8z"/></g>
</svg>